<svg width="58" height="58" viewBox="0 0 58 58" fill="none" xmlns="http://www.w3.org/2000/svg">
<path d="M48.68 18.83C49.68 26.83 49.7 34.84 48.05 42.78C47.28 46.48 47.21 46.47 43.38 46.47C41.77 46.47 40.16 46.4 38.56 46.49C37.53 46.55 36.89 46.18 36.71 45.23C36.08 41.91 35.43 38.59 34.95 35.24C34.69 33.43 34.83 33.41 32.98 33.41C29.77 33.41 26.56 33.41 23.41 33.41C22.94 36.7 22.6 39.76 22.03 42.78C21.33 46.48 21.24 46.46 17.49 46.46C15.79 46.46 14.09 46.41 12.4 46.48C11.47 46.52 10.92 46.18 10.75 45.34C10.12 42.34 9.31004 39.34 9.00004 36.3C8.32003 29.61 8.50004 22.91 9.70004 16.27C9.92004 15.06 10.33 13.89 10.68 12.71C10.94 11.85 11.46 11.48 12.45 11.51C14.81 11.59 17.19 11.58 19.55 11.51C20.47 11.48 21.03 11.79 21.22 12.63C21.78 15.07 22.34 17.51 22.8 19.97C23.02 21.18 22.97 22.43 23.15 23.65C23.2 23.98 23.66 24.51 23.95 24.52C27.52 24.58 31.08 24.56 34.65 24.56C35 21.84 35.27 19.22 35.7 16.62C35.93 15.24 36.4 13.9 36.8 12.55C37.02 11.78 37.52 11.47 38.39 11.49C40.8 11.55 43.21 11.55 45.63 11.49C46.48 11.47 47.03 11.75 47.23 12.53C47.75 14.63 48.41 16.71 48.68 18.83ZM57.78 24.84C57.58 22.45 57.05 20.07 56.56 17.71C56.45 17.19 55.89 16.41 55.49 16.37C53.75 16.22 51.99 16.31 50.2 16.31C51.48 24.85 51.48 33.18 50.2 41.71C51.45 41.71 52.6 41.71 53.76 41.71C56.17 41.71 56.32 41.64 56.91 39.27C58.08 34.52 58.19 29.67 57.78 24.84ZM7.78004 16.29C6.56004 16.29 5.41004 16.29 4.25004 16.29C1.83004 16.29 1.68004 16.36 1.09004 18.72C-0.0899649 23.48 -0.189965 28.33 0.220035 33.18C0.420035 35.54 0.930035 37.87 1.41004 40.2C1.52004 40.73 2.05003 41.56 2.44004 41.6C4.21004 41.75 6.00004 41.67 7.79004 41.67C6.49004 33.09 6.51004 24.75 7.78004 16.29Z" fill="white"/>
</svg>
