<svg width="58" height="58" viewBox="0 0 58 58" fill="none" xmlns="http://www.w3.org/2000/svg">
<path d="M7.40006 45.3C12.6001 43 14.2001 43.1 14.4001 36.3C14.6001 29.4 13.5001 27.3 16.4001 22.8C19.3001 18.3 24.9001 4.4 30.7001 2.1C36.5001 -0.299999 32.9001 5.5 32.1001 9.4C31.3001 13.2 30.2001 23.5 32.4001 26.5C34.6001 29.4 40.0001 35.3 41.5001 36.5C43.0001 37.6 42.2001 41.5 32.1001 43.3C21.9001 45.1 17.1001 43.3 17.1001 43.3C17.1001 43.3 28.5001 48.2 38.6001 45C48.7001 41.8 46.0001 38.4 46.0001 38.4C46.0001 38.4 59.1001 36.6 56.7001 43.3C54.3001 50 42.9001 55.6 32.2001 56.4C21.6001 57.1 1.50006 56.1 1.00006 50.7C1.00006 50.7 0.100057 48.5 7.40006 45.3Z" fill="white"/>
</svg>
