<svg width="6" height="11" viewBox="0 0 6 11" fill="none" xmlns="http://www.w3.org/2000/svg">
<path d="M2.6375 10.4998C1.90417 10.4998 1.28133 10.2435 0.769 9.7308C0.256333 9.21847 0 8.5998 0 7.8748V2.4623C0 1.9373 0.1875 1.4873 0.5625 1.1123C0.9375 0.737305 1.3875 0.549805 1.9125 0.549805C2.4375 0.549805 2.8875 0.737305 3.2625 1.1123C3.6375 1.4873 3.825 1.9373 3.825 2.4623V7.3373C3.825 7.67064 3.7105 7.95397 3.4815 8.1873C3.25217 8.42064 2.97083 8.5373 2.6375 8.5373C2.30417 8.5373 2.02283 8.42064 1.7935 8.1873C1.5645 7.95397 1.45 7.67064 1.45 7.3373V2.4623H2.0375V7.3373C2.0375 7.5123 2.09583 7.65614 2.2125 7.7688C2.32917 7.88114 2.47083 7.9373 2.6375 7.9373C2.80417 7.9373 2.94583 7.88114 3.0625 7.7688C3.17917 7.65614 3.2375 7.5123 3.2375 7.3373V2.4623C3.2375 2.09564 3.1105 1.78514 2.8565 1.5308C2.60217 1.2768 2.2875 1.1498 1.9125 1.1498C1.54583 1.1498 1.2355 1.2768 0.9815 1.5308C0.727167 1.78514 0.6 2.09564 0.6 2.4623V7.8748C0.6 8.43314 0.798 8.9123 1.194 9.3123C1.58967 9.7123 2.07083 9.9123 2.6375 9.9123C3.20417 9.9123 3.6855 9.7123 4.0815 9.3123C4.47717 8.9123 4.675 8.43314 4.675 7.8748V2.4623H5.275V7.8748C5.275 8.5998 5.01883 9.21847 4.5065 9.7308C3.99383 10.2435 3.37083 10.4998 2.6375 10.4998Z" fill="white"/>
</svg>
