<svg width="118" height="24" viewBox="0 0 118 24" fill="none" xmlns="http://www.w3.org/2000/svg">
<path d="M12.72 3.2H0.24V6.896H4.56V20H8.4V6.896H12.72V3.2Z" fill="white"/>
<path d="M23.12 20H27.32L21.608 3.2H16.712L11 20H15.2L16.04 17.36H22.28L23.12 20ZM17.192 13.76L19.16 7.592L21.128 13.76H17.192Z" fill="white"/>
<path d="M35.456 20.336C38.528 20.336 41.216 18.824 42.656 16.448L39.344 14.528C38.624 15.824 37.16 16.592 35.456 16.592C32.48 16.592 30.56 14.6 30.56 11.6C30.56 8.6 32.48 6.608 35.456 6.608C37.16 6.608 38.6 7.376 39.344 8.672L42.656 6.752C41.192 4.376 38.504 2.864 35.456 2.864C30.392 2.864 26.72 6.656 26.72 11.6C26.72 16.544 30.392 20.336 35.456 20.336Z" fill="white"/>
<path d="M55.72 3.2H43.24V6.896H47.56V20H51.4V6.896H55.72V3.2Z" fill="white"/>
<path d="M57.44 3.2V20H61.28V3.2H57.44Z" fill="white"/>
<path d="M76.64 20L71.624 11.384L76.4 3.2H72.032L69.44 7.64L66.848 3.2H62.48L67.256 11.384L62.24 20H66.608L69.44 15.152L72.272 20H76.64Z" fill="white"/>
<path d="M79.36 20.336C80.608 20.336 81.64 19.304 81.64 18.056C81.64 16.808 80.608 15.776 79.36 15.776C78.112 15.776 77.08 16.808 77.08 18.056C77.08 19.304 78.112 20.336 79.36 20.336Z" fill="#377DF7"/>
<path d="M98.072 10.64H89.648V14H94.136C93.536 15.608 92.072 16.592 89.84 16.592C86.576 16.592 84.56 14.504 84.56 11.648C84.56 8.696 86.672 6.608 89.504 6.608C91.4 6.608 92.912 7.472 93.608 8.576L96.872 6.704C95.456 4.448 92.744 2.864 89.528 2.864C84.584 2.864 80.72 6.752 80.72 11.624C80.72 16.448 84.512 20.336 89.792 20.336C94.496 20.336 98.072 17.216 98.072 12.08V10.64Z" fill="#377DF7"/>
<path d="M117.072 10.64H108.648V14H113.136C112.536 15.608 111.072 16.592 108.84 16.592C105.576 16.592 103.56 14.504 103.56 11.648C103.56 8.696 105.672 6.608 108.504 6.608C110.4 6.608 111.912 7.472 112.608 8.576L115.872 6.704C114.456 4.448 111.744 2.864 108.528 2.864C103.584 2.864 99.72 6.752 99.72 11.624C99.72 16.448 103.512 20.336 108.792 20.336C113.496 20.336 117.072 17.216 117.072 12.08V10.64Z" fill="#377DF7"/>
</svg>
