<svg width="16" height="16" viewBox="0 0 16 16" fill="none" xmlns="http://www.w3.org/2000/svg">
<mask id="mask0_744_26117" style="mask-type:alpha" maskUnits="userSpaceOnUse" x="0" y="0" width="16" height="16">
<rect width="16" height="16" fill="#D9D9D9"/>
</mask>
<g mask="url(#mask0_744_26117)">
<path d="M10.0003 13.3333C8.51144 13.3333 7.25033 12.8167 6.21699 11.7833C5.18366 10.75 4.66699 9.4889 4.66699 8.00001C4.66699 6.51112 5.18366 5.25001 6.21699 4.21668C7.25033 3.18334 8.51144 2.66668 10.0003 2.66668C11.4892 2.66668 12.7503 3.18334 13.7837 4.21668C14.817 5.25001 15.3337 6.51112 15.3337 8.00001C15.3337 9.4889 14.817 10.75 13.7837 11.7833C12.7503 12.8167 11.4892 13.3333 10.0003 13.3333ZM4.66699 13.1667C3.48921 12.8556 2.5281 12.2222 1.78366 11.2667C1.03921 10.3111 0.666992 9.22223 0.666992 8.00001C0.666992 6.77779 1.03921 5.6889 1.78366 4.73334C2.5281 3.77779 3.48921 3.14446 4.66699 2.83335V4.23334C3.86699 4.51112 3.22255 4.99446 2.73366 5.68334C2.24477 6.37223 2.00033 7.14446 2.00033 8.00001C2.00033 8.85557 2.24477 9.62779 2.73366 10.3167C3.22255 11.0056 3.86699 11.4889 4.66699 11.7667V13.1667ZM10.0003 12C11.1114 12 12.0559 11.6111 12.8337 10.8333C13.6114 10.0556 14.0003 9.11112 14.0003 8.00001C14.0003 6.8889 13.6114 5.94446 12.8337 5.16668C12.0559 4.3889 11.1114 4.00001 10.0003 4.00001C8.88921 4.00001 7.94477 4.3889 7.16699 5.16668C6.38921 5.94446 6.00033 6.8889 6.00033 8.00001C6.00033 9.11112 6.38921 10.0556 7.16699 10.8333C7.94477 11.6111 8.88921 12 10.0003 12Z" fill="white"/>
</g>
</svg>
