<svg width="58" height="58" viewBox="0 0 58 58" fill="none" xmlns="http://www.w3.org/2000/svg">
<path d="M45.1 17.3C42.1 0.4 29 0 29 0C29 0 15.8 0.4 12.9 17.3C10 34.2 4 35.6 4 35.6C4 35.6 8.4 51.6 23 58C23 58 15.5 45.6 15.5 36.4C15.5 31.4 16.8 23.1 29 23.1C41.2 23.1 42.5 31.4 42.5 36.4C42.5 45.6 35 58 35 58C49.6 51.5 54 35.5 54 35.5C54 35.5 48 34.1 45.1 17.3Z" fill="white"/>
<path d="M29 26.8C29 26.8 20.8 26.6 18.7 32.5C21 39.2 23.9 47 29 47C34.1 47 37 39.2 39.2999 32.5C37.1999 26.6 29 26.8 29 26.8Z" fill="white"/>
</svg>
