<svg width="58" height="58" viewBox="0 0 58 58" fill="none" xmlns="http://www.w3.org/2000/svg">
<g clip-path="url(#clip0_166_1282)">
<path d="M22.4 48.5C20.4 49.4 18.7 50 17.2 50.1C11.4 50.3 9.70002 47.7 9.30002 47C8.30002 47.7 7.10002 48.1 5.80002 48.1C2.60002 48.1 -0.0999756 45.5 -0.0999756 42.4C-0.0999756 40.1 1.30002 38.2 3.30002 37.2C3.00002 36.5 0.200025 30.5 8.10003 24.6C16.6 18.2 49.6 6 49.6 6L58 20.1L44.9 32.3C44.9 32.3 44.8 32.4 44.7 32.5C41.3 27 33.4 25.5 26.9 29.2C20.3 33 17.7 40.7 21 46.5C21.4 47.3 21.9 47.9 22.4 48.5ZM44.4 41.3C44.4 47.2 39.6 51.9 33.8 51.9C27.9 51.9 23.2 47.1 23.2 41.3C23.2 35.4 28 30.7 33.8 30.7C39.6 30.7 44.4 35.5 44.4 41.3ZM36.5 41.3C36.5 39.8 35.3 38.5 33.7 38.5C32.2 38.5 30.9 39.7 30.9 41.3C30.9 42.8 32.1 44.1 33.7 44.1C35.3 44.1 36.5 42.9 36.5 41.3Z" fill="white"/>
</g>
<defs>
<clipPath id="clip0_166_1282">
<rect width="58" height="58" fill="white"/>
</clipPath>
</defs>
</svg>
