<svg width="58" height="58" viewBox="0 0 58 58" fill="none" xmlns="http://www.w3.org/2000/svg">
<g clip-path="url(#clip0_166_1295)">
<path d="M54.6001 26.6C54.1001 25.7 53.4001 25 52.6001 24.4C51.4001 23.1 50.2001 21.8 49.1001 20.5C47.6001 18.6 46.7001 16.5 45.8001 14.4C45.7001 14.2 45.5001 14 45.4001 13.8C44.7001 12.7 44.1001 11.5 43.5001 10.3C42.6001 9.3 41.7001 8.2 40.8001 7.1C42.0001 5.5 43.4001 3.7 45.3001 1.2C45.3001 1.2 45.3001 1.1 45.2001 1.1C45.1001 0.9 45.0001 0.7 45.0001 0.5V0.4C45.0001 0.3 44.9001 0.2 44.9001 0.1C43.6001 0 42.7001 -0.1 41.9001 0.2C38.3001 1.3 34.7001 2.4 31.1001 3.6C29.6001 3.7 28.3001 3.8 27.0001 4C25.3001 4.2 23.7001 4.4 22.1001 4.9C21.8001 5 21.5001 5 21.2001 5.1C21.0001 5.2 20.7001 5.2 20.5001 5.3C20.4001 5.3 20.3001 5.3 20.2001 5.3C18.8001 5.6 17.5001 6 16.1001 6.5C15.3001 6.6 14.5001 6.9 13.9001 7.4C13.4001 7.6 12.9001 7.8 12.4001 8.1C12.3001 8.1 12.3001 8.2 12.2001 8.3C10.9001 8.9 9.70006 9.6 8.60006 10.5C8.40006 10.6 8.20006 10.8 8.10006 11C7.50006 11.7 6.90006 12.4 6.40006 13.2V13.3C6.40006 13.4 6.40006 13.4 6.50006 13.5C6.50006 13.5 6.50006 13.5 6.60006 13.5C7.00006 13.4 7.50006 13.4 7.90006 13.3C8.10006 13.3 8.20006 13.2 8.40006 13.2C9.20006 13 10.1001 13 10.9001 12.9C11.2001 12.9 11.5001 12.9 11.7001 12.8C11.8001 12.8 11.9001 12.8 12.0001 12.8C12.0001 12.9 11.9001 13 11.8001 13C11.7001 13 11.7001 13 11.7001 13C8.40006 15 5.60006 17.6 3.30006 20.6C3.20006 20.6 3.20006 20.7 3.10006 20.7C3.00006 20.8 2.90006 20.9 2.90006 21C2.90006 21 2.90006 21.1 2.80006 21.1C2.70006 21.2 2.60006 21.4 2.50006 21.5C2.30006 21.7 2.60006 22 2.90006 22C4.20006 21.6 5.50006 21.3 6.70006 21C6.90006 21 7.10006 20.9 7.30006 20.9C6.90006 21.7 6.60006 22.6 6.30006 23.5C6.20006 23.8 6.00006 24.2 5.90006 24.5C5.50006 25.2 5.20006 26 5.00006 26.8C4.60006 28 4.30006 29.1 4.00006 30.3C3.90006 30.9 3.80006 31.6 3.80006 32.2C3.60006 33 3.50006 33.9 3.40006 34.7V34.8C3.40006 35 3.40006 35.3 3.40006 35.5C3.40006 35.7 3.70006 35.9 3.90006 35.8C4.40006 35.4 4.90006 35 5.40006 34.6C5.50006 34.5 5.60006 34.5 5.70006 34.4C5.70006 34.7 5.70006 34.9 5.60006 35.2C5.60006 36.5 5.70006 37.8 5.80006 38.9C6.00006 41.5 6.60006 44.2 8.30006 46.3C8.40006 46.3 8.40006 46.3 8.40006 46.3C10.4001 47 12.3001 47.9 14.2001 48.8C14.9001 49.1 15.6001 49.4 16.2001 49.7C16.0001 49.4 15.9001 49.1 15.7001 48.9C14.6001 46.7 13.5001 44.1 13.6001 41.5C12.8001 36.8 12.9001 32 14.0001 27.4C14.6001 24.8 15.4001 22.3 16.4001 19.9C17.1001 18.2 18.1001 16.4 19.6001 15.2C19.6001 15.1 19.7001 15.1 19.7001 15C20.0001 14.5 20.4001 14.1 20.8001 13.6C21.4001 13.3 22.0001 12.9 22.6001 12.6C22.4001 12.8 22.3001 13.1 22.1001 13.3C21.4001 14.3 20.8001 15.3 20.3001 16.4C19.9001 17.1 19.5001 17.8 19.1001 18.5C19.0001 18.8 18.9001 19.1 18.8001 19.4C18.7001 19.7 18.6001 19.9 18.4001 20.2C18.4001 20.3 18.4001 20.4 18.3001 20.5C16.9001 23.8 15.9001 27.3 15.6001 30.8C15.4001 32.4 15.4001 34 15.5001 35.6C15.6001 36.7 15.8001 37.9 16.1001 39C18.2001 46.1 24.3001 51.7 30.6001 55.3C31.1001 55.4 31.7001 55.5 32.2001 55.7C35.1001 56.3 37.9001 56.9 40.5001 58C41.1001 55 41.5001 51.9 41.3001 48.8C41.1001 46 40.4001 43.5 38.9001 41.1C38.3001 40.1 37.7001 39.1 37.0001 38.1C36.3001 37.1 35.5001 36 34.8001 35C33.7001 33.4 33.1001 31.4 32.3001 29.5C34.3001 29.3 36.4001 28.6 38.2001 29C39.3001 29.3 40.5001 29.8 41.5001 30.5C41.6001 30.5 41.7001 30.6 41.8001 30.6C42.9001 31.2 44.0001 31.6 45.2001 32.1C46.2001 32.5 47.2001 33 47.9001 33.9C48.5001 34.7 49.2001 35.2 50.3001 35.3C52.1001 35.5 54.6001 35.2 55.0001 33C55.7001 31 55.6001 28.4 54.6001 26.6Z" fill="white"/>
</g>
<defs>
<clipPath id="clip0_166_1295">
<rect width="58" height="58" fill="white"/>
</clipPath>
</defs>
</svg>
