<svg width="58" height="58" viewBox="0 0 58 58" fill="none" xmlns="http://www.w3.org/2000/svg">
<g clip-path="url(#clip0_166_1299)">
<path d="M26.8 34.4L18.4 51.9H39.1L30.7 34.8L26.8 34.4Z" fill="white"/>
<path d="M57.1 18.3C56.2 17.5 55 17.3 53.9 17.8C48.4 20.1 43.1 21.4 38.1 22L32 7.2C31.6 6.2 30.5 5.5 29.3 5.5C28.1 5.5 27 6.1 26.6 7.1L20.3 21C17.2 20.3 14.4 19.5 12.1 18.6C9.70004 17.7 7.80003 16.8 6.50003 16.1C5.80003 15.8 5.40003 15.5 5.00003 15.3C4.80003 15.2 4.70003 15.1 4.70003 15.1H4.60003C3.60003 14.4 2.20003 14.5 1.20003 15.2C0.200034 15.9 -0.199966 17.1 0.200034 18.2L8.50003 42.3L8.60003 42.6L9.70003 45.8C9.80003 46 9.80003 46.1 9.90003 46.2L12.2 52.5L15 46.4C15.1 46.3 15.2 46.2 15.2 46L23.9 27.1C26.5 27.4 29.2 27.7 32.1 27.7C32.8 27.7 33.6 27.7 34.3 27.7L41.9 46C42 46.2 42.1 46.3 42.2 46.5L44.7 52.6L47.4 46C47.4 46 47.4 46 47.4 45.9C47.4 45.9 47.4 45.8 47.5 45.6L48.8 42.3C50.5 38 53.8 30.2 57.9 21.3C58.2 20.3 58 19.1 57.1 18.3ZM12.8 37.2L7.80003 22.9C8.40003 23.2 9.10003 23.4 9.80003 23.7C12.1 24.6 14.8 25.4 17.8 26.1L12.8 37.2ZM32 22.3C30 22.3 28 22.2 26.2 22L29.2 15.4L32 22.3ZM49.7 25.1C47.6 29.9 45.8 34.1 44.4 37.4L40.2 27.2C43.3 26.7 46.5 26 49.7 25.1Z" fill="white"/>
</g>
<defs>
<clipPath id="clip0_166_1299">
<rect width="58" height="58" fill="white"/>
</clipPath>
</defs>
</svg>
